<svg role="img" viewBox="0 0 16 16">
  <g id="layer1">
    <path
      style="stroke-width: 0.999999"
      d="M 14.253906,15.003922 H 1.7499995 a 0.75,0.75 45 0 1 -0.75,-0.75 0.75,0.75 135 0 1 0.75,-0.75 H 14.253906 A 0.746094,0.746094 45 0 1 15,14.250016 v 0.0078 a 0.746094,0.746094 135 0 1 -0.746094,0.746094 z"
      id="path23-6"
    />
    <path
      style="stroke-width: 0.999999"
      d="M 14.253906,10.5 H 1.75 A 0.75,0.75 45 0 1 1,9.75 0.74999975,0.74999975 135.00002 0 1 1.75,9.0000005 l 12.503906,0 A 0.746094,0.746094 45 0 1 15,9.7460945 v 0.00781 A 0.746094,0.746094 135 0 1 14.253906,10.5 Z"
      id="path23"
    />
    <path
      id="path25"
      style="stroke-width: 0.999999"
      d="M 1,3.5000027 A 2.4999977,2.4999998 0 0 1 3.500004,1 h 8.999992 a 2.4999985,2.5000005 0 0 1 0,5.0000008 H 3.500004 A 2.4999977,2.4999998 0 0 1 1,3.5000027 Z M 3.500004,2.5000002 a 0.99999981,1.0000006 0 0 0 0,2.0000011 h 8.999992 a 0.99999981,1.0000006 0 1 0 0,-2.0000011 z"
    />
  </g>
</svg>
